<svg id="Gruppe_5102" data-name="Gruppe 5102" xmlns="http://www.w3.org/2000/svg" width="34.654" height="34.654" viewBox="0 0 34.654 34.654">
  <path id="Pfad_5258" data-name="Pfad 5258" d="M2260.286,2466.017h-10.329a2.993,2.993,0,0,0-2.99,2.989v10.329a2.993,2.993,0,0,0,2.99,2.99h10.329a2.994,2.994,0,0,0,2.99-2.99v-10.329A2.993,2.993,0,0,0,2260.286,2466.017Zm-5.165,13.523a5.369,5.369,0,1,1,5.369-5.369A5.375,5.375,0,0,1,2255.121,2479.54Zm5.542-9.628a1.27,1.27,0,1,1,1.27-1.27A1.272,1.272,0,0,1,2260.663,2469.912Z" transform="translate(-2237.794 -2456.797)" fill="#fff"/>
  <path id="Pfad_5259" data-name="Pfad 5259" d="M2255.121,2471.071a3.1,3.1,0,1,0,3.1,3.1A3.1,3.1,0,0,0,2255.121,2471.071Z" transform="translate(-2237.794 -2456.797)" fill="#fff"/>
  <path id="Pfad_5260" data-name="Pfad 5260" d="M2255.121,2456.8a17.327,17.327,0,1,0,17.327,17.327A17.327,17.327,0,0,0,2255.121,2456.8Zm10.423,22.538a5.264,5.264,0,0,1-5.258,5.259h-10.329a5.265,5.265,0,0,1-5.258-5.259v-10.329a5.264,5.264,0,0,1,5.258-5.258h10.329a5.264,5.264,0,0,1,5.258,5.258Z" transform="translate(-2237.794 -2456.797)" fill="#fff"/>
</svg>
