<svg xmlns="http://www.w3.org/2000/svg" width="173.384" height="47.861" viewBox="0 0 173.384 47.861">
  <g id="Gruppe_5101" data-name="Gruppe 5101" transform="translate(0)">
    <g id="Gruppe_5100" data-name="Gruppe 5100" transform="translate(0 3.88)">
      <path id="Pfad_5255" data-name="Pfad 5255" d="M1570.744,2470.086a3.072,3.072,0,0,1,2.225-.864c.089,0,.178,0,.266.01a3.859,3.859,0,0,1,3.006,1.61l.921,1.563.343-1.783c.72-3.75,3.011-5.46,4.835-5.46a2.66,2.66,0,0,1,2.009.891,6.134,6.134,0,0,1,1.094,4.672c-.465,5.4-3.8,9.93-6.68,12.9-5.432-3.782-8.821-7.952-8.88-10.959A3.433,3.433,0,0,1,1570.744,2470.086Z" transform="translate(-1560.165 -2451.6)" fill="#a7a9ac"/>
      <path id="Pfad_5256" data-name="Pfad 5256" d="M1581.793,2486.073c4.051-4.6,6.315-9.382,6.734-14.217.256-2.967-.421-5.491-1.906-7.113a5.153,5.153,0,0,0-3.814-1.736c-2.143,0-4.9,1.487-6.053,5.591a6.67,6.67,0,0,0-3.239-.929c-.091-.006-.181-.007-.272-.007a5.2,5.2,0,0,0-3.823,1.486,6.539,6.539,0,0,0-1.625,4.83c.075,3.723,3.547,8.37,9.556,12.824a26.967,26.967,0,0,1-6.059,4.149c-7.158,2.936-11.465-.069-11.106-5.647.6-9.355,9.665-25.24,12.788-29.31,2.147-2.8,4.583-4.587,6.609-4.377,2.489.258,4.528,2.062,6.694,4.377,7.566,8.09,12.659,20.639,14.276,27.207,0,0,1.3,5,.085,6.752-.83,1.2-2.546,1.483-4.491,1.374C1593.6,2491.182,1586.154,2488.751,1581.793,2486.073Z" transform="translate(-1560.165 -2451.6)" fill="#a7a9ac"/>
    </g>
    <text id="HERZ_APOTHEKE" data-name="HERZ APOTHEKE" transform="translate(47.385 20)" fill="#a7a9ac" font-size="17.314" font-family="TitilliumWeb-Bold, Titillium Web" font-weight="700" letter-spacing="-0.01em"><tspan x="0" y="0">HERZ APOTHEKE</tspan></text>
    <text id="AM_SIEGBOGEN" data-name="AM SIEGBOGEN" transform="translate(47.887 40.861)" fill="#a7a9ac" font-size="17.314" font-family="TitilliumWeb-Regular, Titillium Web" letter-spacing="0.043em"><tspan x="0" y="0">AM SIEGBOGEN</tspan></text>
  </g>
</svg>
