<svg xmlns="http://www.w3.org/2000/svg" width="39.672" height="39.672" viewBox="0 0 39.672 39.672">
  <g id="Gruppe_5107" data-name="Gruppe 5107" transform="translate(0)">
    <g id="Gruppe_5104" data-name="Gruppe 5104">
      <g id="Gruppe_5103" data-name="Gruppe 5103">
        <path id="Pfad_5261" data-name="Pfad 5261" d="M2522.8,2280.078a19.836,19.836,0,1,0,19.836,19.836A19.836,19.836,0,0,0,2522.8,2280.078Zm.851,37.927v-3.489a.851.851,0,0,0-1.7,0V2318a18.124,18.124,0,0,1-17.24-17.24h3.488a.851.851,0,1,0,0-1.7h-3.488a18.125,18.125,0,0,1,17.24-17.241v3.489a.851.851,0,0,0,1.7,0v-3.489a18.127,18.127,0,0,1,17.241,17.241H2537.4a.851.851,0,1,0,0,1.7h3.5A18.125,18.125,0,0,1,2523.652,2318Z" transform="translate(-2502.965 -2280.078)" fill="#fff"/>
      </g>
    </g>
    <g id="Gruppe_5106" data-name="Gruppe 5106" transform="translate(18.985 10.05)">
      <g id="Gruppe_5105" data-name="Gruppe 5105">
        <path id="Pfad_5262" data-name="Pfad 5262" d="M2531.779,2307.828l-8.127-8.263v-8.586a.851.851,0,0,0-1.7,0v8.935a.85.85,0,0,0,.247.595l8.365,8.51a.851.851,0,0,0,1.217-1.191Z" transform="translate(-2521.95 -2290.128)" fill="#fff"/>
      </g>
    </g>
  </g>
</svg>
